<?xml version="1.0" standalone="no"?>
<!DOCTYPE svg PUBLIC "-//W3C//DTD SVG 20010904//EN"
 "http://www.w3.org/TR/2001/REC-SVG-20010904/DTD/svg10.dtd">
<svg version="1.0" xmlns="http://www.w3.org/2000/svg"
 width="260.000000pt" height="260.000000pt" viewBox="0 0 260.000000 260.000000"
 preserveAspectRatio="xMidYMid meet">
<metadata>
Created by potrace 1.11, written by Peter Selinger 2001-2013
</metadata>
<g transform="translate(0.000000,260.000000) scale(0.100000,-0.100000)"
fill="#000000" stroke="none">
<path d="M0 1300 l0 -1300 1300 0 1300 0 0 1300 0 1300 -1300 0 -1300 0 0
-1300z m1544 930 c150 -38 253 -116 311 -233 93 -190 66 -402 -66 -521 -44
-41 -135 -86 -172 -86 -12 0 -28 -4 -36 -9 -9 -6 0 -11 30 -16 124 -21 222
-89 276 -192 38 -72 53 -140 53 -244 0 -249 -117 -414 -349 -491 -62 -21 -87
-22 -423 -26 l-358 -3 0 920 0 921 328 0 c295 0 337 -2 406 -20z"/>
<path d="M1040 1750 l0 -290 193 0 c105 0 209 5 229 10 59 17 130 71 163 124
28 47 30 55 30 155 0 98 -2 110 -28 154 -16 26 -47 61 -69 78 -70 50 -121 59
-330 59 l-188 0 0 -290z"/>
<path d="M1040 935 l0 -317 208 4 c235 5 287 17 356 84 129 126 120 375 -17
475 -83 60 -94 63 -329 67 l-218 4 0 -317z"/>
</g>
</svg>
